<svg width="112" height="221" viewBox="0 0 112 221" fill="none" xmlns="http://www.w3.org/2000/svg">
<rect width="112" height="194" rx="20" fill="#506180"/>
<rect x="7" y="12" width="98" height="170" rx="20" fill="#EEF4FF"/>
<rect x="38" y="53" width="8" height="14" rx="4" fill="#506180"/>
<rect x="67" y="53" width="8" height="14" rx="4" fill="#506180"/>
<path fill-rule="evenodd" clip-rule="evenodd" d="M78.9777 132.028C74.5357 139.286 66.7571 144.348 57.6208 144.955C47.0062 145.66 37.4128 140.161 32.3857 131.561C34.9955 142.803 45.4356 150.823 57.3257 150.033C67.9448 149.328 76.4885 141.812 78.9777 132.028Z" fill="#506180"/>
<path fill-rule="evenodd" clip-rule="evenodd" d="M36.0706 47.9282C37.2732 46.2916 39.2119 45.2293 41.3986 45.2293C44.2712 45.2293 46.7157 47.0625 47.6259 49.6228C47.6603 49.3664 47.6781 49.1048 47.6781 48.839C47.6781 45.6142 45.0638 43 41.839 43C38.9241 43 36.508 45.136 36.0706 47.9282Z" fill="#506180"/>
<path fill-rule="evenodd" clip-rule="evenodd" d="M65 47.9282C66.2026 46.2916 68.1412 45.2293 70.328 45.2293C73.2006 45.2293 75.6451 47.0625 76.5553 49.6228C76.5897 49.3664 76.6075 49.1048 76.6075 48.839C76.6075 45.6142 73.9932 43 70.7684 43C67.8534 43 65.4374 45.136 65 47.9282Z" fill="#506180"/>
<circle cx="56.5" cy="101.5" r="4.5" fill="#506180"/>
<path fill-rule="evenodd" clip-rule="evenodd" d="M42 191H27V206.173C20.7096 206.908 16 209.91 16 213.5C16 217.642 22.268 221 30 221C37.732 221 44 217.642 44 213.5C44 212.086 43.2696 210.764 42 209.635V191Z" fill="#506180"/>
<path fill-rule="evenodd" clip-rule="evenodd" d="M71 191H86V206.173C92.2904 206.908 97 209.91 97 213.5C97 217.642 90.732 221 83 221C75.268 221 69 217.642 69 213.5C69 212.086 69.7304 210.764 71 209.635V191Z" fill="#506180"/>
</svg>
